<?xml version="1.0" encoding="UTF-8"?>
<svg id="Layer_1" data-name="Layer 1"
	xmlns="http://www.w3.org/2000/svg" viewBox="0 0 100 100">
	<path d="m67.53,37.82c.72,0,1.43.01,2.15,0,.39,0,.54.15.53.53-.02.53.02,1.07,0,1.6-.02.44.16.58.58.58,2.25-.01,4.49,0,6.74,0q.77,0,.77.79c0,.47.01.93,0,1.4-.01.35.11.52.49.52,1.46-.01,2.93,0,4.4,0,.36,0,.5-.14.5-.5,0-1.47-.01-2.93,0-4.4,0-.38-.17-.5-.52-.49-.55.01-1.1,0-1.65,0-.38.01-.55-.14-.54-.53.02-.53-.02-1.07,0-1.6.02-.43-.15-.59-.58-.58-1.38.02-2.76,0-4.15,0-.64,0-.67-.03-.67-.68,0-.5-.02-1,0-1.5.01-.39-.16-.53-.54-.52-.55.02-1.1,0-1.65,0-.35,0-.53-.12-.52-.49.01-.58.01-1.17,0-1.75,0-.34.15-.48.48-.48.55,0,1.1-.02,1.65,0,.44.02.59-.16.57-.59-.02-.52,0-1.03,0-1.55-.01-.4.12-.59.54-.57.55.02,1.1.02,1.65,0,.39-.01.53.16.53.54-.01,1.4,0,2.8,0,4.2,0,.64.02.66.68.67,1.37,0,2.73-.01,4.1,0,.45,0,.63-.15.61-.61-.03-.5-.03-1,0-1.5.03-.47-.18-.61-.62-.59-.53.03-1.07,0-1.6,0-.33,0-.49-.13-.49-.47,0-1.48,0-2.96,0-4.45,0-.37.16-.5.52-.5.5.01,1,0,1.5,0,.66,0,.68-.02.69-.66,0-.52,0-1.03,0-1.55,0-.33.13-.49.47-.49,2.38,0,4.76,0,7.14,0,.42,0,.5.21.5.57,0,1.38,0,2.76,0,4.15,0,.66.02.68.66.68.67,0,1.33,0,2,0,.02.02.04.03.07.05-.02.88-.04,1.77-.06,2.65-1.79,0-3.58,0-5.36-.01,0-1.59-.02-3.19,0-4.78,0-.42-.13-.61-.57-.59-.53.03-1.06.02-1.59,0-.39-.01-.53.14-.53.53.01,1.45.01,2.89,0,4.34,0,.39.15.53.53.53.71-.01,1.43,0,2.14.01,0,.89,0,1.79,0,2.68-.73,0-1.46.02-2.2.01-.34,0-.48.14-.48.48,0,2.38,0,4.76,0,7.14,0,.35.15.47.48.47.55-.01,1.1.01,1.65,0,.39-.01.59.12.57.54-.02.71-.01,1.43-.02,2.15-.71,0-1.42.03-2.13.02-.4,0-.57.13-.56.55.02.71,0,1.42-.01,2.13-.73,0-1.46.03-2.19.03-.33,0-.5.12-.49.46.01.58.01,1.16,0,1.75,0,.34.14.48.48.48.55-.01,1.1-.02,1.65,0,.45.02.58-.17.57-.59-.02-.7.01-1.4.02-2.09.71,0,1.42-.03,2.13-.01.41,0,.55-.16.55-.56-.01-.71.01-1.42.02-2.13,1.78,0,3.57,0,5.35,0,0,.73.01,1.46.03,2.19,0,.36-.15.51-.51.5-.57-.01-1.13,0-1.7,0-.37,0-.51.15-.5.51.01.55.02,1.1,0,1.65-.01.38.13.54.52.54,1.45-.01,2.89-.01,4.34,0,.39,0,.53-.15.53-.53-.01-1.43-.02-2.86,0-4.29,0-.45-.17-.58-.59-.57-.7.02-1.4-.01-2.09-.02,0-.89,0-1.77,0-2.66.73,0,1.46-.03,2.18-.02.36,0,.51-.14.5-.5-.01-.55-.02-1.09,0-1.64.02-.41-.14-.56-.55-.55-.71.01-1.42-.01-2.13-.02,0-.73-.02-1.46-.02-2.2,0-.34-.13-.49-.47-.48-.55.01-1.1.02-1.65,0-.44-.02-.58.17-.57.59.02.7-.01,1.4-.02,2.09-.73,0-1.46,0-2.19.02-.36,0-.5-.15-.5-.51.01-1.63.01-3.25.02-4.88,1.54,0,3.08-.02,4.62-.03q.76,0,.76-.78c0-.63.01-1.26.02-1.89.88-.02,1.77-.04,2.65-.06.03.03.05.05.08.08,0,1.63-.02,3.26-.03,4.89,0,.35.17.46.49.46.77,0,1.53,0,2.3,0v16.19c-1.65,0-3.3.01-4.94,0-.37,0-.56.11-.55.51.03.71.02,1.43.03,2.15-.02.02-.04.03-.07.05-.71,0-1.43-.01-2.14,0-.38,0-.55-.14-.53-.53.02-.56,0-1.13,0-1.7,0-.34-.13-.49-.47-.48-.55.01-1.1.02-1.65,0-.44-.02-.58.17-.57.59.02,1.38,0,2.76,0,4.14,0,.64-.03.67-.68.67-1.38,0-2.76.01-4.14,0-.43,0-.6.15-.58.58.02.43,0,.86,0,1.3q0,.81.79.81c1.35,0,2.69,0,4.04,0,.39,0,.58.12.57.54-.01,1.45-.01,2.89,0,4.34,0,.38-.14.54-.53.54-.71,0-1.43.02-2.14.03-.03-.03-.05-.05-.08-.08.01-.65.03-1.3.03-1.94,0-.69-.01-.71-.69-.71-1.33,0-2.66,0-3.99,0-.7,0-.71-.01-.72-.74,0-.43,0-.86,0-1.3,0-.64-.02-.66-.68-.66-.48,0-.96-.02-1.45,0-.4.02-.58-.12-.57-.54.02-.71.02-1.43.02-2.14.71,0,1.42-.04,2.13-.02.41,0,.56-.15.55-.55-.01-.71.01-1.42.02-2.13,1.59,0,3.19-.02,4.78,0,.42,0,.61-.13.59-.57-.03-.53-.02-1.06,0-1.59.01-.39-.14-.53-.53-.53-1.44.01-2.89.01-4.34,0-.39,0-.53.15-.53.53.01.71,0,1.43-.01,2.14-.71,0-1.42.04-2.13.02-.41,0-.56.15-.55.55.01.71-.01,1.42-.02,2.13-1.2,0-2.39.02-3.59.01-3.29,0-6.57-.01-9.86-.02,0-.65-.02-1.3-.02-1.95,0-.74,0-.75.75-.75,2.25,0,4.49,0,6.74,0,.46,0,.63-.15.6-.61-.03-.53,0-1.06,0-1.6,0-.36.15-.51.51-.5.57.01,1.13,0,1.7,0,.37,0,.5-.15.5-.51,0-2.36,0-4.73,0-7.09,0-.33-.12-.49-.47-.49-2.38,0-4.76,0-7.14,0-.34,0-.48.14-.48.48.01.58,0,1.16,0,1.75,0,.34-.14.48-.48.48-.58,0-1.16,0-1.75,0-.33,0-.49-.13-.49-.47,0-1.48,0-2.96,0-4.44,0-.37.15-.51.51-.5.57.01,1.13,0,1.7,0,.33,0,.5-.11.49-.46-.02-.73-.02-1.46-.03-2.19.02-.02.04-.03.07-.05Zm13.45,9.5s0-.03,0-.05c-.02-1.55.21-1.33-1.36-1.33-1.53,0-1.31-.21-1.32,1.32-.01,1.36,0,1.37,1.38,1.36,1.49-.01,1.28.19,1.3-1.3Z"/>
	<path d="m89.01,99.88h-16.18c-.01-1.82-.03-3.64-.04-5.46.03-.03.05-.05.08-.08.7.01,1.4,0,2.09.04.45.02.58-.17.57-.59-.02-.7.01-1.39.02-2.09.73,0,1.46-.02,2.2-.02.34,0,.49-.13.48-.47-.01-.55-.02-1.1,0-1.65.02-.44-.17-.58-.59-.57-.7.02-1.4-.01-2.09-.02,0-1.58-.03-3.16,0-4.74,0-.47-.15-.65-.63-.64-1.41.02-2.83,0-4.24.01-.38,0-.54-.14-.54-.53.01-1.45.01-2.89,0-4.34,0-.37.12-.56.52-.55.57.02,1.13.01,1.7,0,.36,0,.51.14.51.5-.01.58,0,1.16,0,1.75,0,.32.14.45.45.45.52,0,1.03,0,1.55,0,.66,0,.68-.02.68-.66,0-1.33,0-2.66,0-3.99,0-.72.01-.74.72-.74,1.35,0,2.7-.02,4.04,0,.47,0,.67-.13.64-.62-.03-.48-.03-.97,0-1.45.03-.48-.16-.64-.63-.63-1.38.02-2.76,0-4.14.02-.48,0-.64-.16-.63-.64.02-1.58,0-3.16,0-4.74.01-.02.02-.03.04-.04.73,0,1.46,0,2.19,0,.34,0,.49.14.48.48,0,.58,0,1.16,0,1.74,0,.34.13.49.47.48.55-.01,1.1-.02,1.64,0,.44.02.58-.16.57-.59-.02-1.38,0-2.76,0-4.14,0-.64.03-.67.68-.67,1.56-.01,3.12-.02,4.68-.03.03.03.05.05.08.08-.01.71-.03,1.43-.03,2.14,0,.39-.15.54-.53.53-.56-.02-1.13,0-1.69,0-.34,0-.48.14-.47.48.01.56.02,1.13,0,1.7-.01.4.17.53.54.52.53-.02,1.06.01,1.6,0,.4-.01.58.12.57.54-.02.71-.01,1.43-.02,2.14-.73,0-1.46.03-2.19.03-.33,0-.5.12-.49.46.01.58.01,1.16,0,1.75,0,.34.14.48.48.48.55-.01,1.1-.02,1.65,0,.45.02.58-.17.57-.59-.02-.7.01-1.4.02-2.09,1.62,0,3.25,0,4.87-.02.36,0,.52.14.51.5-.02.73-.01,1.46-.02,2.19-.72,0-1.43.03-2.15.02-.38,0-.54.12-.54.52,0,3.24,0,6.49,0,9.73,0,.38.14.54.53.53.71-.01,1.43,0,2.15.01,0,.73.03,1.46.03,2.19,0,.33.12.5.46.49.58-.01,1.16-.01,1.75,0,.34,0,.48-.14.48-.48-.01-.55-.02-1.1,0-1.65.02-.45-.17-.58-.59-.57-.7.02-1.4-.01-2.09-.02,0-1.63,0-3.25-.02-4.88,0-.36.14-.51.5-.51.53.01,1.06-.02,1.59,0,.45.02.63-.13.61-.6-.02-.7,0-1.39.02-2.09.71,0,1.43-.02,2.14-.01.38,0,.55-.13.54-.52-.02-.51.02-1.03,0-1.54-.02-.46.13-.67.62-.65.73.03,1.46.01,2.19.01v18.88c-.77,0-1.53,0-2.3,0-.36,0-.52-.14-.51-.5.01-.57,0-1.13,0-1.7,0-.36-.14-.51-.5-.5-2.36,0-4.73,0-7.09,0-.37,0-.5.16-.49.51.01.57,0,1.13,0,1.7,0,.33-.12.49-.47.49-.58,0-1.17-.01-1.75,0-.37,0-.51-.16-.5-.51.01-.5,0-1,0-1.5,0-.67-.01-.69-.71-.69-.45,0-.9-.02-1.35,0-.47.03-.67-.13-.64-.62.03-.51,0-1.03.01-1.55.01-.38-.13-.55-.52-.54-.52.02-1.03.03-1.55,0-.49-.03-.63.17-.63.64.02,1.35,0,2.7,0,4.04,0,.7-.01.71-.74.72-.43,0-.87,0-1.3,0-.63,0-.66.03-.66.64,0,.42,0,.83,0,1.25q0,.8.8.8c3.11,0,6.23,0,9.34,0,.61,0,.65.04.65.66,0,.72,0,1.43,0,2.15Zm-6.73-13.6c1.17,0,2.33,0,3.5,0,.38,0,.54-.13.54-.52-.01-2.35-.01-4.69,0-7.04,0-.39-.15-.52-.54-.52-2.33,0-4.66.01-6.99,0-.4,0-.56.13-.56.55.01,2.33.01,4.66,0,6.99,0,.42.16.55.56.55,1.16-.02,2.33,0,3.5,0Z"/>
	<path d="m62.05,8.12c0,.88-.01,1.76-.02,2.65-.68,0-1.36.05-2.03.02-.5-.02-.66.16-.66.66.02,1.57,0,3.15,0,4.72-.73,0-1.46.03-2.19.03-.33,0-.5.12-.49.46.01.58.01,1.16,0,1.75,0,.34.14.48.48.48.55-.01,1.1-.02,1.65,0,.45.02.58-.17.57-.59-.02-.7.01-1.4.02-2.09.88,0,1.77,0,2.65,0,0,.73.03,1.46.03,2.19,0,.33.12.5.46.49.58-.01,1.16-.01,1.75,0,.34,0,.48-.14.48-.48-.01-.55-.02-1.1,0-1.65.02-.45-.17-.58-.59-.57-.7.02-1.4-.01-2.09-.02,0-1.79,0-3.58.01-5.36,1.61,0,3.23,0,4.84-.02.42,0,.54.18.54.57,0,3.23,0,6.46,0,9.69,0,.41-.15.56-.56.56-1.41-.01-2.83,0-4.24-.01-.46,0-.63.16-.6.61.03.53,0,1.06,0,1.6,0,.37-.15.51-.51.5-.57-.01-1.13-.01-1.7,0-.36,0-.52-.14-.51-.5.01-.57,0-1.13,0-1.7,0-.36-.14-.51-.5-.5-.57.01-1.13.01-1.7,0-.37,0-.5.16-.49.52.01.52-.02,1.03,0,1.55.03.47-.14.67-.62.64-.51-.03-1.03,0-1.55-.01-.38-.01-.55.13-.54.52.02.57,0,1.13,0,1.7,0,.33-.13.49-.48.48-.58,0-1.16-.01-1.75,0-.37,0-.5-.17-.49-.52.01-.52-.02-1.03,0-1.55.03-.47-.13-.67-.62-.64-.68.03-1.36.01-2.05.01-.02-.02-.04-.03-.07-.05,0-.71,0-1.43.03-2.14.01-.4-.17-.52-.54-.51-.55.02-1.1,0-1.65,0-.35,0-.52-.13-.51-.49.02-.73.01-1.46.02-2.19.7,0,1.4-.04,2.1-.02.42.01.61-.13.59-.57-.03-.55,0-1.1,0-1.65,0-.33.13-.49.48-.48.48,0,.97,0,1.45,0q.79,0,.79.77c0,1.37,0,2.73,0,4.1,0,.38.13.55.52.54.55-.02,1.1-.02,1.65,0,.39.01.53-.16.52-.54-.01-1.12,0-2.23,0-3.35,0-2.3.02-4.59.02-6.89.7,0,1.4-.03,2.09-.01.43.01.59-.14.59-.57-.02-1.4-.02-2.79,0-4.19,0-.48-.15-.64-.63-.63-1.38.02-2.76,0-4.14.02-.47,0-.65-.14-.64-.62.02-1.59.01-3.19.01-4.78h5.39c0,.73.02,1.46,0,2.19,0,.36.14.51.5.5.56-.01,1.13-.01,1.69,0,.36,0,.5-.14.5-.5-.01-.73,0-1.46,0-2.19h5.39c0,.89,0,1.78.01,2.67-.02.02-.03.04-.05.07-.74,0-1.49-.02-2.23-.03-.29,0-.43.13-.42.42.01.74.02,1.49.03,2.23-.03.03-.05.05-.08.08-.73,0-1.46-.02-2.2-.03-.31,0-.46.12-.46.44,0,.6,0,1.2,0,1.8,0,.32.15.45.46.44.73-.02,1.46-.02,2.2-.03.02.02.03.04.05.07Z"/>
	<path d="m13.46,75.54c-.68,0-1.37.02-2.05-.01-.49-.02-.65.18-.62.64.03.5,0,1,.01,1.5.02.4-.13.58-.55.57-.55-.02-1.1-.02-1.65,0-.39.01-.53-.16-.52-.54.02-.55,0-1.1,0-1.65,0-.35-.11-.53-.49-.52-.58.02-1.17.01-1.75,0-.32,0-.45.14-.45.45,0,.57-.02,1.13,0,1.7.01.41-.16.56-.56.55-1.61-.01-3.23,0-4.84-.01C0,77.33,0,76.43,0,75.53c.73,0,1.46-.01,2.2,0,.32,0,.5-.11.49-.46-.02-.73-.02-1.46-.03-2.2.02-.02.04-.03.07-.05,1.6,0,3.19,0,4.79.01.44,0,.6-.16.58-.59-.02-.5-.03-1,0-1.5.02-.45-.13-.64-.6-.62-.55.03-1.1,0-1.65,0-.31,0-.46-.13-.46-.44,0-.6,0-1.2,0-1.8,0-.34.15-.48.48-.47.5,0,1,0,1.5,0,.71,0,.71,0,.72-.73,0-2.44.01-4.89.02-7.33.73,0,1.46-.03,2.19-.03.33,0,.5-.12.49-.46-.01-.58-.01-1.16,0-1.75,0-.34-.14-.48-.48-.48-.55.01-1.1.02-1.65,0-.45-.02-.58.17-.57.59.02.7-.01,1.4-.02,2.09-.65,0-1.3.01-1.95.01-.72,0-.73-.01-.74-.72,0-1.55-.02-3.1-.03-4.64.03-.03.05-.05.08-.08.23.01.46.03.7.03,2.23,0,4.45,0,6.68,0,.66,0,.68.03.69.66,0,.51,0,1.03,0,1.54,0,.33.11.5.46.49.73-.02,1.46-.02,2.19-.03.03.03.05.05.08.08,0,.73-.02,1.46-.03,2.2,0,.31.12.46.44.46,1.5,0,3,0,4.49,0,.32,0,.45-.15.44-.46-.02-.73-.02-1.46-.03-2.2.03-.03.05-.05.08-.08.71.01,1.43.03,2.14.03.35,0,.53.11.52.49,0,1.48,0,2.96,0,4.44,0,.38-.18.49-.52.49-.57-.01-1.13,0-1.7,0-.34,0-.49.13-.48.47.01.57-.01,1.13,0,1.7.01.38-.14.54-.53.53-.72-.01-1.43,0-2.15,0-.02-.01-.03-.02-.04-.04,0-.72,0-1.43,0-2.15,0-.35-.12-.52-.49-.51-2.36,0-4.73,0-7.09,0-.36,0-.5.14-.5.5,0,3.26,0,6.53,0,9.79,0,.37.17.5.52.49.53-.01,1.07.01,1.6,0,.42-.02.6.14.59.58-.02.7.01,1.4.02,2.1-.02.02-.04.03-.07.05Z"/>
	<path d="m0,80.93c6.1,0,12.21,0,18.31-.01.43,0,.58.15.58.58-.01,6.14-.01,12.27-.01,18.41H0v-18.98Zm16.18,9.49c0-2.03,0-4.06,0-6.09,0-.67-.02-.69-.66-.69-4.05,0-8.09,0-12.14,0-.65,0-.67.02-.67.67,0,4.05,0,8.09,0,12.14,0,.63.03.66.64.66,4.06,0,8.12,0,12.19,0,.62,0,.65-.03.65-.65,0-2.01,0-4.03,0-6.04Z"/>
	<path d="m99.9,18.88c-6.14,0-12.27,0-18.41.01-.43,0-.58-.15-.58-.58.01-6.1.01-12.21.01-18.31h18.98v18.88Zm-9.53-16.18c-2.05,0-4.1,0-6.14,0-.45,0-.62.14-.61.6.01,4.1.01,8.19,0,12.29,0,.46.16.6.61.6,4.08-.01,8.16-.01,12.23,0,.47,0,.64-.14.64-.63-.01-4.08-.01-8.16,0-12.24,0-.48-.17-.63-.64-.63-2.03.02-4.06,0-6.09,0Z"/>
	<path d="m18.88,0c0,6.1,0,12.21.01,18.31,0,.43-.15.58-.58.58-6.1-.01-12.21-.01-18.31-.01V0h18.88Zm-9.49,16.18c2.05,0,4.1,0,6.14,0,.62,0,.64-.03.64-.65,0-4.06,0-8.12,0-12.19,0-.47-.14-.64-.63-.64-4.08.01-8.16.01-12.24,0-.48,0-.63.17-.63.64.01,4.06,0,8.12,0,12.19,0,.63.03.66.64.66,2.01,0,4.03,0,6.04,0Z"/>
	<path d="m2.75,29.71c1.58,0,3.16-.03,4.74,0,.48,0,.66-.15.63-.63-.03-.5.01-1-.01-1.5-.02-.43.16-.59.58-.58,1.6.01,3.2,0,4.79,0,.02.02.04.03.07.05-.02.88-.04,1.77-.06,2.65-.7,0-1.4.03-2.09.01-.43-.01-.59.14-.59.58.02,1.15,0,2.29,0,3.44,0,3.84,0,7.68,0,11.52,0,.62-.04.66-.64.66-.68,0-1.36-.01-2.04-.02,0-.18-.02-.37-.02-.55,0-2.31,0-4.63,0-6.94,0-.42-.12-.62-.57-.59-.55.03-1.1.02-1.65,0-.34,0-.48.14-.48.48.01.57-.01,1.13,0,1.7.01.39-.15.54-.53.53-.55-.02-1.1.01-1.65,0-.39-.01-.54.15-.52.53.02.53.02,1.07,0,1.6-.02.4.13.58.55.56.56-.02,1.13,0,1.7,0,.31,0,.46.13.46.45-.01.75-.02,1.5-.02,2.25-.73,0-1.46.02-2.19.02-.33,0-.48.13-.48.47,0,1.48,0,2.96,0,4.44,0,.34.14.48.47.48.56-.01,1.13.01,1.69,0,.38-.01.54.14.53.53,0,.71.02,1.43.03,2.14-.03.03-.05.05-.08.08-1.79-.01-3.57-.03-5.36-.04,0-6.29,0-12.59,0-18.88.68,0,1.36-.03,2.04,0,.5.02.66-.15.66-.66-.02-1.58,0-3.15.02-4.73Zm4.04,5.38c.27,0,.53-.01.8,0,.38.02.56-.13.53-.52-.02-.28,0-.57,0-.85-.02-1.52.2-1.31-1.33-1.31-1.57,0-1.35-.21-1.35,1.34,0,1.56-.22,1.32,1.35,1.34Z"/>
	<path d="m100,72.92c-.75,0-1.5,0-2.24.01-.4.01-.58-.14-.56-.55.02-.51-.02-1.03.01-1.55.02-.45-.14-.62-.6-.61-1.38.02-2.76,0-4.14,0-.62,0-.65-.04-.66-.64,0-.5.02-1,0-1.5-.02-.44.17-.59.59-.57.51.02,1.03-.01,1.55,0,.39.01.57-.11.57-.54-.02-1.45-.01-2.89,0-4.34,0-.36-.13-.52-.5-.51-.57.01-1.13,0-1.7,0-.36,0-.51-.14-.51-.5,0-1.46.01-2.93,0-4.39,0-.39.16-.53.54-.52.55.02,1.1,0,1.65,0,.35,0,.53-.11.52-.49-.02-.73-.02-1.46-.02-2.19.02-.02.04-.03.07-.05.66.01,1.33.02,1.99.03.65,0,.68.03.68.67,0,1.38.01,2.75,0,4.13,0,.46.16.62.61.6.73-.02,1.46,0,2.19,0v5.4c-.76,0-1.53.01-2.29,0-.36,0-.51.13-.5.5.01.56.01,1.13,0,1.69,0,.36.14.5.5.5.76-.01,1.53,0,2.29,0v5.4Z"/>
	<path d="m32.36,97.08c0-.71.01-1.43,0-2.14,0-.38.14-.55.53-.54.55.02,1.1-.01,1.64,0,.38.01.54-.13.53-.52-.02-.71,0-1.43,0-2.14.02-.02.03-.04.05-.07,1.77,0,3.55,0,5.32,0,.02.02.03.04.05.07,0,1.58,0,3.15,0,4.73,0,.61-.04.64-.66.64-.51,0-1.03.01-1.54,0-.36-.01-.5.14-.5.5.01.76,0,1.53,0,2.29h-2.7c0-.77-.01-1.53,0-2.3,0-.32-.11-.5-.46-.49-.73.02-1.46.02-2.2.03-.02-.02-.03-.04-.05-.07Z"/>
	<path d="m45.88,2.75c0,.72,0,1.43.02,2.15,0,.37-.12.55-.52.54-1.46-.01-2.93-.01-4.39,0-.36,0-.51-.15-.5-.51.01-.53-.02-1.07,0-1.6.03-.46-.16-.6-.61-.6-2.25.02-4.49,0-6.74,0-.74,0-.75,0-.75-.76,0-.65,0-1.3,0-1.95h10.79c0,.71.02,1.43,0,2.14-.01.4.14.57.55.56.71-.01,1.42.01,2.14.02Z"/>
	<path d="m94.41,26.96c0-1.56.01-3.13.02-4.69,0-.68.02-.7.71-.7,1.6,0,3.2,0,4.79,0v8.09l-2.76.04s-.05-.05-.08-.08c0-.74.02-1.49.03-2.23,0-.29-.13-.43-.42-.42-.74.01-1.49.02-2.23.03-.02-.02-.04-.03-.07-.05Z"/>
	<path d="m51.25,99.91h-8.09c0-.73.02-1.46-.01-2.19-.02-.49.18-.65.65-.62.5.03,1-.01,1.49.01.44.02.58-.16.57-.59-.02-.7,0-1.39.01-2.09,1.79,0,3.58,0,5.37,0,0,1.83,0,3.65.01,5.48Z"/>
	<path d="m64.8,99.97c0-.75,0-1.5-.01-2.24-.01-.4.14-.58.55-.56.51.02,1.03-.02,1.55.01.45.02.62-.14.61-.6-.02-1.38,0-2.76,0-4.14,0-.62.04-.66.64-.66,1.58,0,3.16.01,4.74.02.02.88.04,1.77.06,2.65-.03.03-.05.05-.08.08-.67-.01-1.33-.03-2-.03-.63,0-.65.03-.66.64,0,1.61,0,3.23,0,4.84h-5.39Z"/>
	<path d="m59.35,94.44c0,.73,0,1.46,0,2.19,0,.34.14.48.47.48.55-.01,1.09.01,1.64,0,.42-.02.6.13.59.57-.02.75-.01,1.49-.01,2.24h-8.09c0-.73.02-1.46-.01-2.19-.02-.49.18-.65.65-.62.5.03,1-.01,1.49.01.44.02.58-.16.57-.59-.02-.7,0-1.39.01-2.09.88-.02,1.77-.04,2.65-.06.02.02.03.04.05.07Z"/>
	<path d="m26.97,0c-.01,1.79-.02,3.58-.03,5.36-1.64.01-3.29.02-4.93.04-.41,0-.44-.26-.44-.57,0-1.61,0-3.22,0-4.84,1.8,0,3.6,0,5.39,0Z"/>
	<path d="m75.56.03c0,.73.02,1.46,0,2.19,0,.36.14.51.5.5.56-.01,1.13,0,1.69,0,.36,0,.51.14.51.5-.01.56-.01,1.13,0,1.69,0,.35-.12.52-.49.52-1.48,0-2.96-.01-4.43,0-.42,0-.49-.22-.49-.57,0-1.61,0-3.22,0-4.83.9,0,1.8,0,2.7,0Z"/>
	<path d="m94.51,100c0-.75.01-1.49-.01-2.24-.01-.44.17-.58.59-.57,1.64.02,3.28.01,4.92.01v2.8h-5.49Z"/>
	<path d="m2.77,29.73c-.89.01-1.78.02-2.67.03,0-1.8,0-3.6,0-5.4.75,0,1.49,0,2.24,0,.27,0,.46.08.46.39-.01,1.66-.02,3.32-.03,4.98Z"/>
	<path d="m29.7,99.94c0-.75,0-1.5-.01-2.25-.01-.4.14-.57.55-.56.71.01,1.43,0,2.15-.02.02.02.03.04.05.07-.01.92-.03,1.84-.04,2.76h-2.7Z"/>
	<path d="m.1,56.74c.71,0,1.43,0,2.14-.01.39-.01.59.12.57.54-.02.55-.02,1.09,0,1.64.02.42-.18.55-.57.54-.71-.02-1.43,0-2.14-.01,0-.9,0-1.8,0-2.7Z"/>
	<path d="m2.81,64.86c0,.7-.02,1.39,0,2.09.01.42-.13.61-.57.59-.71-.02-1.42-.01-2.14-.01v-2.7c.89,0,1.78,0,2.67,0,.02.01.03.02.04.04Z"/>
	<path d="m.1,70.23c.72,0,1.43,0,2.15-.01.4-.01.57.14.56.55-.01.71,0,1.43.02,2.15-.02.02-.04.03-.07.05-.89-.01-1.77-.03-2.66-.04,0-.9,0-1.8,0-2.7Z"/>
	<path d="m45.99,2.76c-.01-.89-.02-1.78-.03-2.67h2.7c0,.71,0,1.43.01,2.14.01.39-.12.59-.54.57-.71-.03-1.42-.03-2.14-.04Z"/>
	<path d="m18.91,24.27c2.48,0,4.95,0,7.43.01.48,0,.64-.16.63-.63-.02-2.48-.01-4.96-.01-7.43.02-.02.03-.04.05-.07.87,0,1.75,0,2.62,0,.03.03.05.05.08.08,0,.74-.02,1.49-.03,2.23,0,.29.13.43.42.42.74-.01,1.49-.02,2.23-.03.02.02.03.04.05.07,0,.71-.01,1.43,0,2.14,0,.38-.14.55-.53.53-.56-.02-1.13,0-1.7,0-.34,0-.49.13-.48.47.01.48,0,.96,0,1.45q0,.76.78.77c3.13,0,6.25,0,9.38,0,.47,0,.66.15.64.63-.02.68.01,1.36.02,2.04-.02.02-.04.03-.07.05-3.38,0-6.76,0-10.13-.01-.48,0-.63.16-.63.64.02,2.26,0,4.53,0,6.79,0,.64-.03.67-.68.67-1.56,0-3.13,0-4.69,0-.02-.02-.04-.03-.07-.05,0-.71,0-1.43.03-2.14.01-.4-.17-.53-.54-.51-.51.02-1.03-.02-1.55,0-.45.02-.65-.13-.62-.6.03-.46,0-.93,0-1.4,0-.69-.01-.7-.69-.71-1.56,0-3.12-.02-4.69-.03-.02-.88-.03-1.76-.05-2.64.03-.03.05-.05.08-.08.74,0,1.49.02,2.23.03.29,0,.43-.13.42-.42-.01-.74-.02-1.49-.03-2.23.02-.02.04-.03.07-.05Zm6.67,5.4s.03,0,.05,0c1.55-.02,1.33.21,1.34-1.36,0-1.53.21-1.31-1.31-1.33-1.37-.01-1.37,0-1.36,1.38.01,1.5-.2,1.28,1.29,1.3Z"/>
	<path d="m24.33,45.9c.71,0,1.42,0,2.14-.02.41-.01.55.16.55.56-.01,1.61,0,3.21,0,4.82-.02.02-.03.04-.05.07-.73,0-1.46-.01-2.19-.03-.34,0-.47.15-.47.48.01.56-.01,1.13,0,1.69.01.38-.15.54-.53.53-.58-.02-1.16,0-1.74,0-.29,0-.43.12-.43.42.01.75.02,1.49.03,2.24-.03.03-.05.05-.08.08-1.77,0-3.55,0-5.32,0-.03-.03-.05-.05-.08-.08.01-.71.03-1.43.03-2.14,0-.39.15-.54.54-.53.55.02,1.1-.01,1.65,0,.39.01.54-.15.52-.53-.02-.53-.02-1.06,0-1.6.02-.4-.13-.58-.55-.56-.56.02-1.13,0-1.7,0-.31,0-.46-.13-.46-.44,0-.6,0-1.2,0-1.8,0-.34.15-.48.49-.47.55,0,1.1-.02,1.65,0,.44.02.59-.16.57-.59-.02-.5-.03-1,0-1.5.02-.45-.14-.62-.6-.61-1.38.02-2.76,0-4.14,0-.62,0-.66-.04-.66-.64,0-2.26,0-4.52,0-6.78,0-.65.03-.67.68-.68,1.56-.01,3.12-.02,4.69-.03.02.02.03.04.05.07,0,.88-.01,1.76-.02,2.65-.73,0-1.46.03-2.19.03-.33,0-.5.12-.49.46.01.58.01,1.16,0,1.75,0,.34.14.48.48.48.55-.01,1.1-.02,1.65,0,.45.02.58-.17.57-.59-.02-.7.01-1.4.02-2.09.73,0,1.46,0,2.19-.02.36,0,.5.15.5.51-.01.56,0,1.13,0,1.69,0,.36.14.51.5.5.56-.01,1.13,0,1.69,0,.35,0,.52.13.51.5-.02.73-.01,1.46-.02,2.19-.73,0-1.46.03-2.19.03-.33,0-.5.12-.49.46.01.58.01,1.16,0,1.75,0,.34.14.48.48.48.55-.01,1.1-.02,1.65,0,.45.02.58-.17.57-.59-.02-.7.01-1.4.02-2.09Z"/>
	<path d="m43.25,45.91c.71,0,1.43,0,2.14,0,.39.01.53-.15.52-.53-.02-.55,0-1.1,0-1.64-.01-.39.16-.53.54-.53.71.01,1.43,0,2.14,0,.02.02.04.03.07.05,0,.73-.02,1.46-.03,2.2,0,.31.12.46.44.46.6,0,1.2,0,1.8,0,.32,0,.45-.15.44-.46-.02-.73-.02-1.46-.03-2.2.02-.02.04-.03.07-.05.88,0,1.76,0,2.64,0,.02.02.04.03.07.05,0,.74-.02,1.49-.03,2.23,0,.29.13.43.42.42.74-.01,1.49-.02,2.23-.03.03.03.05.05.08.08-.01.68-.05,1.36-.02,2.05.02.49-.17.64-.64.63-1.36-.02-2.73,0-4.09,0-.64,0-.66.02-.67.68,0,.45,0,.9,0,1.35,0,.62.03.65.65.65,1.4,0,2.8.01,4.19,0,.41,0,.57.15.56.56-.02.52-.02,1.03,0,1.55.02.45-.14.62-.6.62-2.3-.02-4.59-.02-6.89,0-.49,0-.63-.18-.63-.65.02-1.36,0-2.73,0-4.09,0-.63-.03-.66-.64-.66-.47,0-.93,0-1.4,0-.62,0-.65.03-.65.65,0,1.38-.01,2.76,0,4.14,0,.46-.16.63-.61.6-.53-.03-1.07-.02-1.6,0-.36,0-.52-.14-.51-.5.01-.58,0-1.17,0-1.75,0-.32-.13-.45-.45-.45-.58,0-1.17.01-1.75,0-.38,0-.5.17-.49.52.01.53-.01,1.07,0,1.6.02.43-.14.6-.58.59-.7-.02-1.4.01-2.1.02-.02-.02-.03-.04-.05-.07,0-.7-.02-1.4.01-2.1.02-.44-.16-.59-.59-.57-.53.02-1.06,0-1.6,0-.35,0-.53-.12-.52-.49.01-.58.01-1.16,0-1.75,0-.34.14-.48.48-.48.58,0,1.16,0,1.75,0,.34,0,.48-.14.48-.48-.01-.58,0-1.16,0-1.75,0-.34.15-.48.48-.48.73,0,1.46,0,2.2,0,.02.02.04.03.07.05,0,.73-.02,1.46-.03,2.2,0,.31.12.46.44.46.6,0,1.2,0,1.8,0,.32,0,.45-.15.44-.46-.02-.73-.02-1.46-.03-2.2.02-.02.04-.03.07-.05Z"/>
	<path d="m67.53,29.72c.71,0,1.43.01,2.14,0,.38,0,.54.13.54.52-.01,1.46-.01,2.92,0,4.38,0,.4-.18.52-.55.51-.55-.01-1.1,0-1.64,0-.35,0-.52.12-.51.49.02.73.02,1.46.02,2.19-.02.02-.04.03-.07.05-1.64,0-3.29-.02-4.93-.03-.34,0-.42.19-.42.48,0,.56-.01,1.13,0,1.69.01.39-.15.54-.53.53-.56-.02-1.13,0-1.69,0-.34,0-.48.14-.47.48.01.58.01,1.16,0,1.74,0,.35.16.47.49.46.53-.01,1.06.02,1.59,0,.49-.03.63.18.62.64-.02,1.58,0,3.16,0,4.73-.01.02-.02.03-.04.04-.71,0-1.43-.01-2.14,0-.38,0-.55-.14-.54-.52.02-.58,0-1.16,0-1.74,0-.28-.12-.44-.41-.43-.75.01-1.49.02-2.24.03-.03-.03-.05-.05-.08-.08,0-.74.02-1.49.03-2.23,0-.29-.13-.43-.42-.42-.74.01-1.49.02-2.23.03-.02-.02-.04-.03-.07-.05,0-1.58.01-3.16.02-4.73,0-.62.04-.65.65-.65,1.3,0,2.59,0,3.89,0q.86,0,.86-.84c0-1.31.02-2.63,0-3.94,0-.48.17-.65.64-.63.68.03,1.36,0,2.04,0,.02.02.04.03.07.05,0,.73-.02,1.46-.03,2.2,0,.31.12.46.44.46.6,0,1.2,0,1.8,0,.32,0,.45-.15.44-.46-.02-.73-.02-1.46-.03-2.2.03-.03.05-.05.08-.08.74,0,1.49.02,2.23.03.29,0,.43-.13.42-.42-.01-.74-.02-1.49-.03-2.23.02-.02.04-.03.07-.05Z"/>
	<path d="m48.61,24.32c0,1.56-.01,3.13-.02,4.69,0,.68-.02.7-.71.7-.5,0-1,.01-1.5,0-.37-.01-.51.15-.5.51.01.53-.02,1.07,0,1.6.02.46-.17.6-.62.6-3.13-.01-6.26,0-9.38,0q-.79,0-.79.8c0,1.33-.01,2.66,0,3.99,0,.46-.17.62-.62.6-.55-.03-1.1-.01-1.65,0-.31,0-.46-.13-.45-.45,0-2.4,0-4.79,0-7.19,0-.43.26-.47.59-.47,2.26,0,4.53,0,6.79,0,.71,0,.72,0,.71-.73,0-.65-.01-1.3-.02-1.95.02-.02.04-.03.07-.05,1.64,0,3.29.02,4.93.03.33,0,.42-.18.42-.48,0-.56.01-1.13,0-1.69-.01-.38.15-.54.53-.53.71,0,1.43-.02,2.14-.03.02.02.04.03.07.05Z"/>
	<path d="m40.53,45.94c0-.73,0-1.46.02-2.2,0-.33-.12-.49-.47-.48-1.48,0-2.96,0-4.44,0-.34,0-.48.15-.47.48.01.57,0,1.13,0,1.7,0,.35-.11.52-.49.52-1.48,0-2.96,0-4.44,0-.34,0-.48-.14-.48-.48,0-.73,0-1.46,0-2.2.01-.02.02-.03.04-.04.65,0,1.3,0,1.95,0,.7,0,.71-.01.71-.69,0-.45,0-.9,0-1.35,0-.62.04-.66.64-.66,1.37,0,2.73,0,4.1,0,.63,0,.65-.03.65-.65,0-.53,0-1.07,0-1.6,0-.31.14-.45.45-.45,1.5,0,3,0,4.49,0,.44,0,.46.27.46.6,0,2.3,0,4.6,0,6.89,0,.2.01.4.02.6-.02.02-.04.03-.07.05-.87,0-1.75,0-2.62,0-.02-.02-.04-.03-.07-.05Z"/>
	<path d="m32.43,53.97c1.78,0,3.57-.01,5.35-.02.02.02.03.04.05.07-.01.71-.03,1.43-.03,2.14,0,.39-.15.54-.54.53-.55-.02-1.1.01-1.65,0-.39-.01-.53.15-.53.53.01.71,0,1.43-.01,2.14-.71,0-1.42.03-2.13.02-.41,0-.56.15-.55.55.01.71-.01,1.42-.02,2.13-.73,0-1.46.02-2.2.02-.34,0-.48.14-.48.48.01.58,0,1.16,0,1.75,0,.34-.14.48-.48.48-.58,0-1.16-.01-1.75,0-.37,0-.49-.17-.49-.52,0-1.46,0-2.93,0-4.39,0-.37.15-.51.51-.5.57.01,1.13,0,1.7,0,.33,0,.5-.11.49-.46-.02-.73-.02-1.46-.03-2.19.03-.03.05-.05.08-.08.74,0,1.49.02,2.23.03.29,0,.43-.13.42-.42-.01-.74-.02-1.49-.03-2.23.02-.02.04-.03.07-.05Z"/>
	<path d="m72.82,16.15c0-.65,0-1.3,0-1.95,0-.71,0-.71-.74-.71-.48,0-.97-.01-1.45,0-.35,0-.52-.12-.52-.49.01-.58.01-1.16,0-1.75,0-.34.15-.48.48-.47.55,0,1.1-.02,1.65,0,.44.02.59-.16.57-.59-.02-.5.01-1-.01-1.5-.02-.44.12-.65.59-.62.51.03,1.03.02,1.55,0,.43-.02.59.16.58.58-.02,1.4,0,2.8-.01,4.19,0,.48.16.66.64.63.51-.03,1.03,0,1.55,0,.35,0,.53.11.53.48,0,1.48,0,2.96,0,4.44,0,.33-.13.49-.47.48-.58,0-1.16-.01-1.75,0-.37,0-.5-.16-.49-.52.01-.48,0-.96,0-1.45,0-.73,0-.73-.71-.74-.65,0-1.3,0-1.95,0-.02-.01-.03-.02-.04-.04Z"/>
	<path d="m27.02,51.26c.73,0,1.46,0,2.19.02.37,0,.5-.16.49-.52-.01-.53.01-1.06,0-1.6-.02-.42.13-.61.57-.59.53.02,1.06.02,1.6,0,.41-.02.56.15.55.56-.01,1.36,0,2.73,0,4.09,0,.25.01.5.02.75-.02.02-.04.03-.07.05-.74,0-1.49-.02-2.23-.03-.29,0-.43.13-.42.42.01.74.02,1.49.03,2.23-.03.03-.05.05-.08.08-.66-.01-1.33-.02-1.99-.03-.64,0-.67-.03-.67-.68-.01-1.56-.02-3.12-.03-4.68.02-.02.03-.04.05-.07Z"/>
	<path d="m29.76,43.28c-.71,0-1.43-.03-2.14-.02-.4,0-.56-.14-.56-.55.01-1.44.01-2.89,0-4.33,0-.38.15-.54.53-.53.55.02,1.1.02,1.64,0,.42-.02.55.17.55.57-.01,1.36,0,2.72,0,4.08,0,.25.01.5.02.75-.02.01-.03.02-.04.04Z"/>
	<path d="m64.78,2.7c1.58,0,3.16.01,4.74.02.62,0,.65.04.65.65,0,.48-.02.97,0,1.45.03.49-.18.63-.64.62-1.58-.02-3.16,0-4.74,0-.02-.02-.04-.03-.07-.05,0-.87,0-1.75,0-2.62.02-.02.03-.04.05-.07Z"/>
	<path d="m48.62,43.24c0-1.56.01-3.13.02-4.69,0-.68.02-.7.71-.7.47,0,.93.02,1.4,0,.45-.03.62.14.61.6-.02,1.35,0,2.7,0,4.04,0,.25.01.5.02.75-.02.02-.04.03-.07.05-.87,0-1.75,0-2.62,0-.02-.02-.04-.03-.07-.05Z"/>
	<path d="m72.89,16.22c0,1.78-.01,3.57-.02,5.35-.01.02-.02.03-.04.04-.73,0-1.46,0-2.19,0-.33,0-.48-.14-.48-.47,0-1.48,0-2.96,0-4.43,0-.36.15-.51.51-.5.73,0,1.46-.01,2.19-.02.01.02.02.03.04.04Z"/>
	<path d="m72.87,21.58c1.58,0,3.15.02,4.73.02.62,0,.66.04.66.64,0,.53,0,1.06,0,1.59,0,.34-.14.48-.48.48-1.48,0-2.95,0-4.43,0-.36,0-.5-.15-.5-.51,0-.73-.01-1.46-.02-2.19.02-.01.03-.02.04-.04Z"/>
	<path d="m24.41,35.17c0,.71-.03,1.43-.02,2.14,0,.41-.15.56-.56.55-1.61,0-3.22,0-4.84.02-.02-.02-.03-.04-.05-.07.02-.88.03-1.76.05-2.64.28,0,.56-.02.84-.02,1.5-.01,3-.02,4.51-.03.02.02.04.03.07.05Z"/>
	<path d="m64.82,29.74c0-1.58.02-3.16,0-4.74,0-.47.14-.67.62-.64.51.03,1.03.02,1.54,0,.41-.02.56.15.55.56-.01,1.53,0,3.06,0,4.59,0,.08.01.17.02.25-.02.02-.04.03-.07.05-.87,0-1.75,0-2.62,0-.02-.02-.03-.04-.05-.07Z"/>
	<path d="m62.11,32.45c0-.71.03-1.43.02-2.14,0-.41.15-.56.56-.56.71.01,1.43,0,2.14-.02.02.02.03.04.05.07,0,.87,0,1.75,0,2.62-.03.03-.05.05-.08.08-.87,0-1.75,0-2.62,0-.02-.02-.04-.03-.07-.05Z"/>
	<path d="m56.75,33.8c0,.32,0,.63,0,.95,0,.29-.14.42-.43.42-.61,0-1.23,0-1.84,0-.29,0-.43-.12-.43-.42,0-.61,0-1.23,0-1.84,0-.32.15-.45.46-.45.6,0,1.2,0,1.79,0,.31,0,.46.13.46.44,0,.3,0,.6,0,.9Z"/>
	<path d="m64.86,5.5c0,.71-.03,1.43-.02,2.14,0,.41-.15.56-.56.56-.71-.01-1.43,0-2.14.02-.02-.02-.03-.04-.05-.07,0-.87,0-1.75,0-2.62.03-.03.05-.05.08-.08.87,0,1.75,0,2.62,0,.02.02.04.03.07.05Z"/>
	<path d="m43.23,62.09c0-.72-.03-1.43-.01-2.15,0-.39-.14-.54-.53-.53-.57.02-1.13,0-1.7,0-.34,0-.48-.15-.48-.48,0-.53.02-1.07,0-1.6-.03-.47.15-.64.63-.64,2.1.02,4.19,0,6.29,0,1.93,0,3.86,0,5.79,0q.79,0,.79.81c0,.42.02.83,0,1.25-.03.47.13.67.62.64.68-.03,1.36-.01,2.05-.01.02.02.04.03.07.05-.02.88-.03,1.76-.05,2.64-.73,0-1.46.03-2.18.02-.36,0-.51.14-.5.5.01.55.02,1.09,0,1.64-.02.41.15.56.55.55.71-.01,1.42.01,2.13.02,0,.72,0,1.43.02,2.15.01.43-.18.55-.57.54-.55-.02-1.1,0-1.65,0-.34,0-.48.13-.48.47,0,1.48,0,2.96,0,4.45,0,.35.16.47.49.47.57-.01,1.13-.01,1.7,0,.36,0,.51-.14.5-.5-.01-.57,0-1.13,0-1.7,0-.36.15-.51.51-.5.55.01,1.1-.01,1.65,0,.42.02.55-.16.55-.56-.01-1.43-.01-2.86,0-4.3,0-.38-.14-.54-.53-.53-.72.01-1.43,0-2.15-.01,0-.89,0-1.79,0-2.68.73,0,1.46-.02,2.19-.01.33,0,.49-.12.48-.47-.02-.73-.02-1.46-.03-2.19.02-.02.04-.03.07-.05.88.01,1.76.03,2.64.04.01.68.05,1.36.03,2.04-.02.49.18.63.64.62,1.36-.02,2.73,0,4.09,0,.64,0,.67.03.67.68,0,1.36.02,2.73,0,4.09,0,.49.17.65.64.62.51-.03,1.03,0,1.55,0,.35,0,.53.12.52.49-.01.58-.01,1.16,0,1.75,0,.34-.14.48-.48.48-.58,0-1.16,0-1.75,0-.34,0-.48.14-.47.48.01.57.02,1.13,0,1.7-.01.4.17.52.54.51,1.4-.01,2.79,0,4.19,0,.62,0,.66.04.66.64,0,.52-.01,1.03,0,1.55.01.39-.16.53-.54.53-1.41-.01-2.83.01-4.24-.01-.48,0-.65.16-.63.64.03.51,0,1.03,0,1.55.01.39-.16.54-.54.52-.53-.02-1.07.02-1.6,0-.44-.02-.59.16-.57.59.02.51,0,1.03,0,1.55.01.39-.12.59-.54.57-.71-.02-1.43-.01-2.15-.02,0-1.65-.02-3.29-.03-4.94,0-.31.14-.46.45-.45.58,0,1.16-.01,1.75,0,.36,0,.5-.14.5-.5,0-1.46,0-2.93,0-4.39,0-.33-.11-.5-.46-.49-.58.01-1.16.01-1.75,0-.34,0-.48.14-.48.48.01.58,0,1.16,0,1.75,0,.34-.15.48-.48.48-.55,0-1.1.02-1.65,0-.44-.02-.58.16-.58.58.01,2.31.01,4.63,0,6.94,0,.45.17.58.59.57.7-.02,1.4.01,2.09.02,0,.68.02,1.36.01,2.05,0,.6-.04.64-.67.64-2.23,0-4.46,0-6.69,0-.73,0-.73,0-.74.71,0,.48.01.97,0,1.45-.01.39.15.53.53.53,1.4-.01,2.79,0,4.19,0,.64,0,.67.03.67.68,0,.67,0,1.33,0,2-.02.02-.03.04-.05.07-.25-.01-.5-.03-.75-.03-2.43,0-4.86-.01-7.29-.02,0-.1-.02-.2-.02-.3,0-1.51-.01-3.02,0-4.53,0-.41-.14-.57-.55-.56-.5.02-1,.03-1.49,0-.51-.04-.66.16-.66.66.02,1.58,0,3.15-.02,4.73-1.61,0-3.21.02-4.82.01-.4,0-.56.14-.56.55.01.71-.01,1.42-.02,2.14-.89.01-1.78.03-2.67.04-.02-.02-.03-.04-.05-.07.01-.71,0-1.43.03-2.14.01-.4-.17-.52-.54-.51-.55.02-1.1,0-1.65,0-.35,0-.52-.13-.51-.49.02-.73.01-1.46.02-2.19.73,0,1.46-.03,2.18-.02.36,0,.51-.14.5-.5-.01-.55-.02-1.09,0-1.64.02-.41-.14-.56-.55-.55-.71.01-1.42-.01-2.13-.02,0-.53-.02-1.06-.02-1.6,0-1.18-.1-1.09,1.06-1.09,3.89,0,7.79,0,11.68,0,.74,0,.74,0,.74-.76,0-.48,0-.97,0-1.45,0-.34-.13-.49-.47-.48-.53.01-1.07-.02-1.6,0-.48.03-.64-.16-.64-.63.02-1.58,0-3.16,0-4.74.01-.02.02-.03.04-.04.68,0,1.36-.02,2.04,0,.44.02.63-.12.62-.59-.02-1.41-.02-2.83,0-4.24,0-.4-.13-.58-.55-.56-.56.02-1.13,0-1.7,0-.31,0-.46-.13-.46-.45,0-.6,0-1.2,0-1.8,0-.34.15-.48.49-.47.55,0,1.1-.01,1.65,0,.39.01.58-.11.57-.54-.02-1.45-.01-2.89,0-4.34,0-.35-.12-.52-.49-.51-.56.01-1.13.01-1.7,0-.36,0-.51.14-.5.5.01.56,0,1.13,0,1.7,0,.32-.1.5-.46.5-1.65-.01-3.29-.02-4.94-.02Zm13.47,16.23c0-.75,0-1.5,0-2.25,0-.34-.14-.48-.48-.48-.58.01-1.16,0-1.75,0-.31,0-.46.11-.46.44,0,1.5,0,3,0,4.49,0,.32.13.45.45.45.57,0,1.13-.02,1.7,0,.42.02.55-.17.54-.57-.02-.7,0-1.4,0-2.1Zm6.74-13.51c-.27,0-.53.01-.8,0-.38-.02-.56.12-.54.52.02.28,0,.57,0,.85.02,1.52-.2,1.31,1.33,1.31,1.57,0,1.35.22,1.35-1.34,0-1.56.22-1.32-1.35-1.34Z"/>
	<path d="m59.38,89.02c1.56,0,3.13.01,4.69.02.68,0,.7.02.7.7,0,.48-.01.97,0,1.45.02.4-.13.58-.55.56-.55-.02-1.1,0-1.65,0-.36,0-.52.13-.51.5.01.55-.01,1.1,0,1.65.01.4-.14.57-.55.56-.71-.01-1.43,0-2.14.02-.02-.02-.03-.04-.05-.07,0-1.77,0-3.55,0-5.32.02-.02.03-.04.05-.07Z"/>
	<path d="m67.5,86.34c1.58,0,3.16.01,4.74,0,.48,0,.66.16.64.63-.03.68,0,1.36,0,2.05-.01.02-.02.03-.04.04-1.58,0-3.16-.01-4.74,0-.48,0-.66-.16-.64-.63.03-.68,0-1.36,0-2.05.01-.02.02-.03.04-.04Z"/>
	<path d="m62.17,59.41c-.01-.75-.02-1.5-.04-2.24,0-.29.13-.43.43-.42.75.01,1.5.02,2.24.04.01.75.02,1.5.04,2.24,0,.29-.13.43-.43.42-.75-.01-1.5-.02-2.24-.04Z"/>
	<path d="m72.9,64.84c-.71,0-1.43-.01-2.14,0-.38,0-.55-.13-.54-.52.02-.58,0-1.16,0-1.74,0-.31.14-.45.45-.45.6,0,1.19,0,1.79,0,.34,0,.47.15.47.48,0,.73,0,1.46,0,2.19-.01.02-.02.03-.04.04Z"/>
	<path d="m75.62,67.56c-.71,0-1.43-.03-2.14-.02-.41,0-.56-.15-.56-.56.01-.71-.01-1.43-.02-2.14.02-.01.03-.02.04-.04.71,0,1.43.03,2.14.02.41,0,.56.15.56.56-.01.71.01,1.43.02,2.14-.02.01-.03.02-.04.04Z"/>
	<path d="m67.46,86.38c-.71,0-1.43-.03-2.14-.02-.4,0-.58-.14-.56-.55.02-.56.01-1.13,0-1.69,0-.34.14-.48.48-.48.58,0,1.16.01,1.74,0,.37,0,.5.16.5.51,0,.73.01,1.46.02,2.19-.02.01-.03.02-.04.04Z"/>
	<path d="m75.59,91.78c-.88,0-1.76,0-2.63,0-.02-.89-.04-1.77-.06-2.66.02-.01.03-.02.04-.04.89.02,1.77.04,2.66.06,0,.88,0,1.76,0,2.63Z"/>
	<path d="m26.96,16.21c-.73,0-1.46,0-2.19-.02-.37,0-.5.17-.49.52.01.53-.01,1.06,0,1.6.02.42-.13.61-.57.59-.51-.02-1.03-.03-1.55,0-.46.02-.61-.16-.61-.61.02-2.23,0-4.46,0-6.68,0-.98.01-1.96,0-2.94,0-.44.16-.6.59-.58.53.02,1.06.02,1.6,0,.38-.01.55.13.54.52-.02.55.01,1.1,0,1.65-.01.38.13.55.52.54.71-.02,1.43,0,2.14,0,.02.02.04.03.07.05,0,1.77,0,3.55,0,5.32-.02.02-.03.04-.05.07Z"/>
	<path d="m27,5.43c.75-.01,1.5-.02,2.24-.04.33,0,.43.18.43.47,0,.58,0,1.16,0,1.75,0,.34.14.48.48.48.58-.01,1.16,0,1.75,0,.34,0,.48.15.48.48,0,.73,0,1.46,0,2.2-.02.02-.03.04-.05.07-1.77,0-3.55,0-5.32,0-.02-.02-.04-.03-.07-.05,0-1.54.01-3.07.02-4.61,0-.25.02-.49.04-.74Z"/>
	<path d="m9.69,21.67c1.39.02,1.2-.19,1.2,1.31,0,1.62.22,1.39-1.4,1.39-1.49,0-1.29.19-1.31-1.29,0-.32,0-.63,0-.95-.01-.34.15-.49.48-.48.3,0,.6,0,1.03,0Z"/>
	<path d="m16.27,24.34c0-.71.01-1.43,0-2.14,0-.38.13-.55.52-.54.56.02,1.13.01,1.69,0,.36,0,.51.15.5.51,0,.73.01,1.46.02,2.19-.02.02-.04.03-.07.05-.87,0-1.75,0-2.62,0-.02-.02-.03-.04-.05-.07Z"/>
	<path d="m13.56,27.06c0-.71.03-1.43.02-2.14,0-.41.15-.56.56-.56.71.01,1.43,0,2.14-.02.02.02.03.04.05.07,0,.87,0,1.75,0,2.62-.03.03-.05.05-.08.08-.87,0-1.75,0-2.62,0-.02-.02-.04-.03-.07-.05Z"/>
	<path d="m35.05,91.74c-1.78,0-3.57-.01-5.35-.02-.02-.02-.04-.03-.07-.05,0-.74.02-1.49.03-2.23,0-.29-.13-.43-.42-.42-.74.01-1.49.02-2.23.03-.02-.02-.03-.04-.05-.07,0-.68-.02-1.37.01-2.05.02-.49-.17-.65-.64-.62-.51.03-1.03,0-1.55,0-.35,0-.53-.12-.52-.49.01-.58.01-1.16,0-1.75,0-.34.15-.48.48-.48.57,0,1.13-.01,1.7,0,.39.01.54-.15.52-.53-.02-.52-.02-1.03,0-1.55.02-.45-.14-.62-.6-.61-1.38.02-2.76,0-4.14,0-.62,0-.65-.03-.66-.65,0-.48-.02-.97,0-1.45.03-.45-.14-.61-.6-.61-2.23.02-4.46,0-6.69,0-.81,0-.8,0-.81-.8,0-.63-.01-1.26-.02-1.9.02-.02.04-.03.07-.05.25.01.5.03.75.03,3.13,0,6.25,0,9.38,0,.47,0,.66.15.64.63-.03.53,0,1.06,0,1.6,0,.34.14.48.48.48.57-.01,1.13-.02,1.7,0,.4.01.53-.17.52-.54-.02-.55,0-1.1,0-1.65,0-.35.13-.52.5-.51,1.63.01,3.26.01,4.89.02,0,.73,0,1.46.03,2.19,0,.36-.15.51-.51.5-.57-.01-1.13,0-1.7,0-.37,0-.5.15-.5.51,0,2.36,0,4.72,0,7.09,0,.37.17.5.52.49.53-.01,1.07.01,1.6,0,.42-.02.61.13.59.57-.02.53,0,1.06,0,1.6-.01.38.13.55.52.54.53-.02,1.07.01,1.6,0,.43-.02.6.14.59.58-.02.7.01,1.4.02,2.09-.02.02-.03.04-.05.07Z"/>
	<path d="m29.7,91.73c0,.72-.03,1.43-.02,2.15,0,.41-.16.57-.56.55-.53-.02-1.07.01-1.6,0-.42-.02-.56.16-.55.56.02.52-.01,1.03,0,1.55.02.42-.12.62-.57.6-.53-.02-1.07-.02-1.6,0-.41.02-.56-.15-.56-.56.01-1.4,0-2.8,0-4.19,0-.62-.03-.64-.65-.65-.52,0-1.03-.01-1.55,0-.37,0-.51-.15-.5-.51.01-.53.02-1.07,0-1.6-.02-.45.15-.62.6-.61,1.35.02,2.7,0,4.04,0,.25,0,.5-.01.75-.02.02.02.03.04.05.07,0,.74-.02,1.49-.03,2.23,0,.29.13.43.42.42.74-.01,1.49-.02,2.23-.03.02.02.04.03.07.05Z"/>
	<path d="m45.86,13.52c0,1.6,0,3.19,0,4.79,0,.18-.02.36-.04.55-.75.01-1.5.02-2.24.04-.33,0-.43-.18-.43-.47,0-.57-.01-1.13,0-1.7.01-.39-.15-.54-.53-.53-.5.02-1,0-1.5,0-.63,0-.66.03-.66.64,0,1.36,0,2.73,0,4.09,0,.62-.04.66-.64.66-1.38,0-2.76-.01-4.14,0-.49,0-.65-.18-.63-.64.03-.68.02-1.36.02-2.05.73,0,1.46-.03,2.19-.03.33,0,.5-.12.49-.46-.01-.58-.01-1.16,0-1.75,0-.34-.14-.48-.48-.48-.55.01-1.1.02-1.65,0-.45-.02-.58.17-.57.59.02.7-.01,1.4-.02,2.09-.89.01-1.78.02-2.66.04-.02-.02-.03-.04-.05-.07,0-.74.02-1.49.03-2.23,0-.29-.13-.43-.42-.42-.74.01-1.49.02-2.23.03-.03-.03-.05-.05-.08-.08.01-.71.03-1.43.03-2.14,0-.38.14-.54.53-.53.58.02,1.16,0,1.74,0,.29,0,.43-.12.43-.41-.01-.75-.02-1.49-.03-2.24.02-.02.03-.04.05-.07,2.54,0,5.08.01,7.62.02.32,0,.45-.14.45-.45,0-.58,0-1.16,0-1.74,0-.36.14-.51.5-.51,1.46,0,2.92.01,4.39,0,.39,0,.53.16.52.54-.01.71,0,1.43,0,2.14-.02.02-.03.04-.05.07-.73,0-1.46-.02-2.2-.03-.31,0-.46.12-.46.44,0,.6,0,1.2,0,1.8,0,.32.15.45.46.44.73-.02,1.46-.02,2.2-.03.02.02.03.04.05.07Z"/>
	<path d="m54.01,10.85c-.71.01-1.42.04-2.13.03-.38,0-.54.14-.53.53.02.5,0,.99,0,1.49,0,.65-.03.68-.67.68-1.57,0-3.15.01-4.72.02-.02-.02-.03-.04-.05-.07,0-.87,0-1.75,0-2.62.02-.02.03-.04.05-.07.73,0,1.46,0,2.19.02.37,0,.5-.16.49-.51-.01-.55,0-1.1,0-1.64,0-.37.11-.55.51-.55,1.46.01,2.92,0,4.38,0,.31,0,.52.07.52.44-.02.75-.02,1.49-.04,2.24Z"/>
	<path d="m94.47,78.29c-.75.01-1.5.02-2.24.04-.29,0-.43-.13-.42-.43.01-.75.02-1.5.04-2.24.75-.01,1.5-.02,2.24-.04.29,0,.43.13.42.43-.01.75-.02,1.5-.04,2.24Z"/>
	<path d="m2.77,64.82c0-.71.03-1.43.02-2.14,0-.4.14-.58.55-.56.56.02,1.13.01,1.69,0,.34,0,.48.14.48.48,0,.58-.01,1.16,0,1.74,0,.37-.16.5-.51.5-.73,0-1.46.01-2.19.02-.01-.02-.02-.03-.04-.04Z"/>
	<path d="m43.22,91.78c.75-.01,1.5-.02,2.24-.04.29,0,.43.13.42.43-.01.75-.02,1.5-.04,2.24-.75.01-1.5.02-2.24.04-.29,0-.43-.13-.42-.43.01-.75.02-1.5.04-2.24Z"/>
	<path d="m51.38,91.84c1.65-.01,3.29-.02,4.94-.04.29,0,.43.14.43.43-.01.75-.02,1.5-.04,2.24-1.78,0-3.55,0-5.33,0,0-.88,0-1.76,0-2.63Z"/>
	<path d="m40.43,64.77c.01,1.65.02,3.29.04,4.94,0,.33-.17.43-.47.43-.53,0-1.07.02-1.6,0-.48-.03-.64.15-.63.63.02,2.25,0,4.49,0,6.74,0,.72-.01.73-.72.73-.43,0-.87,0-1.3,0-.67,0-.69-.02-.69-.72,0-.45-.02-.9,0-1.35.03-.47-.13-.66-.62-.64-.68.02-1.36-.02-2.04-.03-.01-.68-.05-1.36-.03-2.04.02-.49-.17-.63-.64-.62-1.38.02-2.76,0-4.14.01-.44,0-.64-.12-.63-.59.02-1.41.02-2.83,0-4.24,0-.43.14-.61.58-.59.53.02,1.06.02,1.6,0,.42-.02.56.17.55.57-.02.5,0,1,0,1.5,0,.61.03.64.66.64,1.36,0,2.73-.01,4.09,0,.47,0,.65-.14.64-.63-.02-1.36-.01-2.73,0-4.09,0-.22.02-.43.04-.65,1.78,0,3.55,0,5.33,0Z"/>
	<path d="m56.72,59.43c0-.72.03-1.43.02-2.15,0-.41.16-.57.56-.55.53.02,1.06.02,1.6,0,.4-.01.57.14.56.55-.01.71,0,1.43.02,2.15-.02.02-.04.03-.07.05-.87,0-1.75,0-2.62,0-.02-.02-.04-.03-.07-.05Z"/>
	<path d="m35.2,62.1c0-.88,0-1.76,0-2.63.74-.01,1.49-.02,2.23-.04.28,0,.44.11.44.41,0,.63,0,1.26,0,1.89,0,.3-.16.41-.44.41-.74-.01-1.49-.02-2.23-.04Z"/>
	<path d="m32.5,62.17c.88,0,1.76,0,2.63,0,0,.88,0,1.76,0,2.63-.75.01-1.5.02-2.24.04-.29,0-.43-.13-.42-.43.01-.75.02-1.5.04-2.24Z"/>
	<path d="m43.23,62.17c.01.75.02,1.5.04,2.24,0,.29-.13.43-.43.42-.75-.01-1.5-.02-2.24-.04-.01-.75-.02-1.5-.04-2.24,0-.29.13-.43.43-.42.75.01,1.5.02,2.24.04Z"/>
	<path d="m70.22,48.62c0-.73,0-1.46,0-2.19,0-.33.13-.49.47-.48.6,0,1.19,0,1.79,0,.31,0,.45.14.45.45,0,.6,0,1.19,0,1.79,0,.34-.15.47-.48.47-.73,0-1.46,0-2.19,0-.02-.01-.03-.02-.04-.04Z"/>
	<path d="m62.15,48.62c.71,0,1.43.03,2.14.02.4,0,.58.14.56.55-.02.56-.01,1.13,0,1.69,0,.34-.14.48-.48.48-.58,0-1.16-.01-1.74,0-.37,0-.5-.16-.5-.51,0-.73-.01-1.46-.02-2.19.02-.01.03-.02.04-.04Z"/>
	<path d="m70.26,48.66c0,.71-.03,1.43-.02,2.14,0,.4-.14.58-.55.56-.56-.02-1.13-.01-1.69,0-.34,0-.48-.14-.48-.48,0-.58.01-1.16,0-1.74,0-.37.16-.5.51-.5.73,0,1.46-.01,2.19-.02.01.02.02.03.04.04Z"/>
	<path d="m94.47,37.89c0,.88,0,1.76,0,2.63-.75.01-1.5.02-2.24.04-.29,0-.43-.14-.42-.43.01-.75.02-1.5.04-2.24.88,0,1.76,0,2.63,0Z"/>
	<path d="m80.98,82.32c.02-1.55-.2-1.34,1.35-1.34,1.56,0,1.34-.21,1.36,1.34,0,.3,0,.6,0,.9,0,.3-.11.47-.43.47-.61,0-1.23,0-1.84,0-.33,0-.44-.17-.43-.47,0-.3,0-.6,0-.9Z"/>
	<path d="m19.01,67.52c.71,0,1.43.01,2.14,0,.38,0,.55.14.54.53-.02.55.01,1.1,0,1.64-.01.38.13.55.52.53.55-.02,1.1,0,1.64,0,.38-.01.55.13.54.52-.02.56-.01,1.13,0,1.69,0,.32-.11.5-.46.5-2.39,0-4.78,0-7.18,0-.34,0-.48-.15-.47-.48,0-.73,0-1.46,0-2.19.02-.02.03-.04.05-.07.74,0,1.49.02,2.23.03.29,0,.43-.13.42-.42-.01-.74-.02-1.49-.03-2.23.02-.02.04-.03.07-.05Z"/>
	<path d="m19.01,64.84c0,.89,0,1.78,0,2.68-.02.02-.04.03-.07.05-.87,0-1.75,0-2.62,0-.02-.02-.03-.04-.05-.07,0-.68.03-1.36,0-2.04-.02-.51.18-.67.67-.65.68.03,1.36,0,2.03-.02.01.02.02.03.04.04Z"/>
	<path d="m16.27,70.26c-.71,0-1.43-.03-2.14-.02-.41,0-.57-.16-.55-.56.02-.53.02-1.06,0-1.6-.01-.4.14-.57.55-.56.71.01,1.43,0,2.14-.02.02.02.03.04.05.07,0,.87,0,1.75,0,2.62-.02.02-.03.04-.05.07Z"/>
	<path d="m16.25,29.8c.01.7.05,1.39.03,2.09,0,.44.16.59.59.57.55-.02,1.1,0,1.64,0,.3,0,.48.11.47.43-.01.75-.02,1.49-.04,2.24-1.65.01-3.29.02-4.94.04-.29,0-.43-.14-.43-.43.01-1.65.02-3.29.04-4.94.88,0,1.76,0,2.63,0Z"/>
	<path d="m5.53,45.98c.88,0,1.76,0,2.63,0,.01.74.02,1.49.04,2.23,0,.28-.11.44-.41.44-.63,0-1.26,0-1.89,0-.3,0-.41-.16-.41-.44.01-.74.02-1.49.04-2.23Z"/>
	<path d="m9.44,86.28c1.16,0,2.33,0,3.49,0,.4,0,.57.14.56.55-.01,2.35-.01,4.69,0,7.04,0,.39-.16.53-.54.53-2.35,0-4.69,0-7.04,0-.38,0-.54-.13-.54-.52,0-2.35.01-4.69,0-7.04,0-.41.16-.56.56-.55,1.16.02,2.33,0,3.49,0Z"/>
	<path d="m86.31,9.41c0-1.16,0-2.33,0-3.49,0-.4.14-.57.55-.56,2.35.01,4.69.01,7.04,0,.39,0,.53.16.53.54,0,2.35,0,4.69,0,7.04,0,.38-.13.54-.52.54-2.35,0-4.69-.01-7.04,0-.41,0-.56-.16-.55-.56.02-1.16,0-2.33,0-3.49Z"/>
	<path d="m9.44,5.39c1.16,0,2.33,0,3.49,0,.4,0,.57.14.56.55-.01,2.35-.01,4.69,0,7.04,0,.39-.16.53-.54.53-2.35,0-4.69,0-7.04,0-.38,0-.54-.13-.54-.52,0-2.35.01-4.69,0-7.04,0-.41.16-.56.56-.55,1.16.02,2.33,0,3.49,0Z"/>
	<path d="m48.64,72.96c-1.78,0-3.57-.01-5.35-.02-.02-.01-.03-.02-.04-.04,0-.73,0-1.46,0-2.19,0-.33.14-.48.47-.48,1.48,0,2.96,0,4.43,0,.36,0,.51.15.5.51,0,.73.01,1.46.02,2.19-.02.01-.03.02-.04.04Z"/>
	<path d="m35.13,83.72c-.71,0-1.43-.01-2.14,0-.38,0-.55-.13-.54-.52.02-.58,0-1.16,0-1.74,0-.31.14-.45.45-.45.6,0,1.19,0,1.79,0,.34,0,.47.15.47.48,0,.73,0,1.46,0,2.19-.01.02-.02.03-.04.04Z"/>
	<path d="m37.83,83.75c0,.88,0,1.76,0,2.63-.74.01-1.49.02-2.23.04-.36,0-.44-.2-.44-.51,0-.73-.01-1.46-.02-2.18.02-.01.03-.02.04-.04.89.02,1.77.04,2.66.06Z"/>
	<path d="m43.29,72.93c0,.71-.03,1.43-.02,2.14,0,.4-.14.58-.55.56-.56-.02-1.13-.01-1.69,0-.34,0-.48-.14-.48-.48,0-.58.01-1.16,0-1.74,0-.37.16-.5.51-.5.73,0,1.46-.01,2.19-.02.01.02.02.03.04.04Z"/>
	<path d="m48.68,89.14c.88,0,1.76,0,2.63,0,0,.88,0,1.76,0,2.63-.75.01-1.5.02-2.24.04-.29,0-.43-.13-.42-.43.01-.75.02-1.5.04-2.24Z"/>
</svg>